<mxfile host="app.diagrams.net" modified="2020-11-18T07:49:09.727Z" agent="5.0 (Windows NT 10.0; Win64; x64) AppleWebKit/537.36 (KHTML, like Gecko) Chrome/86.0.4240.198 Safari/537.36" etag="hePlt5BT49eluErEngzu" version="13.9.9" type="github" pages="2">
  <diagram id="C5RBs43oDa-KdzZeNtuy" name="订单支付">
    <mxGraphModel dx="1422" dy="794" grid="1" gridSize="10" guides="1" tooltips="1" connect="1" arrows="1" fold="1" page="1" pageScale="1" pageWidth="1200" pageHeight="1920" math="0" shadow="0">
      <root>
        <mxCell id="WIyWlLk6GJQsqaUBKTNV-0" />
        <mxCell id="WIyWlLk6GJQsqaUBKTNV-1" parent="WIyWlLk6GJQsqaUBKTNV-0" />
        <mxCell id="J5XLHRuIDhpoorP-df7e-5" value="订单" style="rounded=1;whiteSpace=wrap;html=1;fontSize=12;glass=0;strokeWidth=1;shadow=0;fillColor=#dae8fc;strokeColor=#6c8ebf;" parent="WIyWlLk6GJQsqaUBKTNV-1" vertex="1">
          <mxGeometry x="81" y="40" width="1120" height="40" as="geometry" />
        </mxCell>
        <mxCell id="-cb7-zarN6fpi-wTe-68-16" style="edgeStyle=orthogonalEdgeStyle;rounded=0;orthogonalLoop=1;jettySize=auto;html=1;exitX=0.5;exitY=1;exitDx=0;exitDy=0;" parent="WIyWlLk6GJQsqaUBKTNV-1" source="-cb7-zarN6fpi-wTe-68-2" edge="1">
          <mxGeometry relative="1" as="geometry">
            <mxPoint x="141" y="200" as="targetPoint" />
          </mxGeometry>
        </mxCell>
        <mxCell id="-cb7-zarN6fpi-wTe-68-2" value="信风Service" style="rounded=1;whiteSpace=wrap;html=1;fillColor=#ffe6cc;strokeColor=#d79b00;" parent="WIyWlLk6GJQsqaUBKTNV-1" vertex="1">
          <mxGeometry x="81" y="120" width="120" height="40" as="geometry" />
        </mxCell>
        <mxCell id="-cb7-zarN6fpi-wTe-68-12" style="edgeStyle=orthogonalEdgeStyle;rounded=0;orthogonalLoop=1;jettySize=auto;html=1;exitX=0.5;exitY=1;exitDx=0;exitDy=0;entryX=0.5;entryY=0;entryDx=0;entryDy=0;" parent="WIyWlLk6GJQsqaUBKTNV-1" source="-cb7-zarN6fpi-wTe-68-3" target="-cb7-zarN6fpi-wTe-68-25" edge="1">
          <mxGeometry relative="1" as="geometry">
            <mxPoint x="821" y="200" as="targetPoint" />
          </mxGeometry>
        </mxCell>
        <mxCell id="-cb7-zarN6fpi-wTe-68-3" value="万联优选Service" style="rounded=1;whiteSpace=wrap;html=1;fillColor=#f8cecc;strokeColor=#b85450;" parent="WIyWlLk6GJQsqaUBKTNV-1" vertex="1">
          <mxGeometry x="761" y="120" width="120" height="40" as="geometry" />
        </mxCell>
        <mxCell id="-cb7-zarN6fpi-wTe-68-13" style="edgeStyle=orthogonalEdgeStyle;rounded=0;orthogonalLoop=1;jettySize=auto;html=1;exitX=0.5;exitY=1;exitDx=0;exitDy=0;" parent="WIyWlLk6GJQsqaUBKTNV-1" source="-cb7-zarN6fpi-wTe-68-4" edge="1">
          <mxGeometry relative="1" as="geometry">
            <mxPoint x="461" y="280" as="targetPoint" />
          </mxGeometry>
        </mxCell>
        <mxCell id="-cb7-zarN6fpi-wTe-68-4" value="商城SDK" style="rounded=1;whiteSpace=wrap;html=1;fillColor=#fff2cc;strokeColor=#d6b656;" parent="WIyWlLk6GJQsqaUBKTNV-1" vertex="1">
          <mxGeometry x="401" y="120" width="120" height="40" as="geometry" />
        </mxCell>
        <mxCell id="-cb7-zarN6fpi-wTe-68-37" style="edgeStyle=orthogonalEdgeStyle;rounded=0;orthogonalLoop=1;jettySize=auto;html=1;exitX=0.5;exitY=1;exitDx=0;exitDy=0;strokeColor=#000000;" parent="WIyWlLk6GJQsqaUBKTNV-1" source="J5XLHRuIDhpoorP-df7e-1" edge="1">
          <mxGeometry relative="1" as="geometry">
            <mxPoint x="1141" y="960" as="targetPoint" />
          </mxGeometry>
        </mxCell>
        <mxCell id="J5XLHRuIDhpoorP-df7e-1" value="only" style="rounded=1;whiteSpace=wrap;html=1;fillColor=#e1d5e7;strokeColor=#9673a6;" parent="WIyWlLk6GJQsqaUBKTNV-1" vertex="1">
          <mxGeometry x="1081" y="120" width="120" height="40" as="geometry" />
        </mxCell>
        <mxCell id="-cb7-zarN6fpi-wTe-68-18" style="edgeStyle=orthogonalEdgeStyle;rounded=0;orthogonalLoop=1;jettySize=auto;html=1;exitX=1;exitY=0.5;exitDx=0;exitDy=0;" parent="WIyWlLk6GJQsqaUBKTNV-1" source="-cb7-zarN6fpi-wTe-68-17" edge="1">
          <mxGeometry relative="1" as="geometry">
            <mxPoint x="461" y="220" as="targetPoint" />
          </mxGeometry>
        </mxCell>
        <mxCell id="-cb7-zarN6fpi-wTe-68-35" style="edgeStyle=orthogonalEdgeStyle;rounded=0;orthogonalLoop=1;jettySize=auto;html=1;exitX=0.5;exitY=1;exitDx=0;exitDy=0;strokeColor=#000000;" parent="WIyWlLk6GJQsqaUBKTNV-1" source="-cb7-zarN6fpi-wTe-68-17" edge="1">
          <mxGeometry relative="1" as="geometry">
            <mxPoint x="141" y="480" as="targetPoint" />
          </mxGeometry>
        </mxCell>
        <mxCell id="-cb7-zarN6fpi-wTe-68-17" value="进入商城" style="whiteSpace=wrap;html=1;" parent="WIyWlLk6GJQsqaUBKTNV-1" vertex="1">
          <mxGeometry x="81" y="200" width="120" height="40" as="geometry" />
        </mxCell>
        <mxCell id="-cb7-zarN6fpi-wTe-68-21" style="edgeStyle=orthogonalEdgeStyle;rounded=0;orthogonalLoop=1;jettySize=auto;html=1;exitX=0.5;exitY=1;exitDx=0;exitDy=0;" parent="WIyWlLk6GJQsqaUBKTNV-1" edge="1">
          <mxGeometry relative="1" as="geometry">
            <mxPoint x="461" y="380" as="sourcePoint" />
            <mxPoint x="461" y="380" as="targetPoint" />
          </mxGeometry>
        </mxCell>
        <mxCell id="-cb7-zarN6fpi-wTe-68-22" style="edgeStyle=orthogonalEdgeStyle;rounded=0;orthogonalLoop=1;jettySize=auto;html=1;exitX=0.5;exitY=1;exitDx=0;exitDy=0;" parent="WIyWlLk6GJQsqaUBKTNV-1" edge="1">
          <mxGeometry relative="1" as="geometry">
            <mxPoint x="461" y="380" as="sourcePoint" />
            <mxPoint x="461" y="380" as="targetPoint" />
          </mxGeometry>
        </mxCell>
        <mxCell id="-cb7-zarN6fpi-wTe-68-26" style="edgeStyle=orthogonalEdgeStyle;rounded=0;orthogonalLoop=1;jettySize=auto;html=1;exitX=1;exitY=0.5;exitDx=0;exitDy=0;entryX=0;entryY=0.5;entryDx=0;entryDy=0;" parent="WIyWlLk6GJQsqaUBKTNV-1" source="-cb7-zarN6fpi-wTe-68-24" target="-cb7-zarN6fpi-wTe-68-25" edge="1">
          <mxGeometry relative="1" as="geometry" />
        </mxCell>
        <mxCell id="-cb7-zarN6fpi-wTe-68-29" style="edgeStyle=orthogonalEdgeStyle;rounded=0;orthogonalLoop=1;jettySize=auto;html=1;exitX=0.5;exitY=1;exitDx=0;exitDy=0;" parent="WIyWlLk6GJQsqaUBKTNV-1" source="-cb7-zarN6fpi-wTe-68-24" edge="1">
          <mxGeometry relative="1" as="geometry">
            <mxPoint x="461" y="400" as="targetPoint" />
          </mxGeometry>
        </mxCell>
        <mxCell id="-cb7-zarN6fpi-wTe-68-24" value="下单" style="rounded=0;whiteSpace=wrap;html=1;" parent="WIyWlLk6GJQsqaUBKTNV-1" vertex="1">
          <mxGeometry x="401" y="280" width="120" height="40" as="geometry" />
        </mxCell>
        <mxCell id="-cb7-zarN6fpi-wTe-68-30" style="edgeStyle=orthogonalEdgeStyle;rounded=0;orthogonalLoop=1;jettySize=auto;html=1;exitX=1;exitY=0.5;exitDx=0;exitDy=0;entryX=0;entryY=0.5;entryDx=0;entryDy=0;" parent="WIyWlLk6GJQsqaUBKTNV-1" source="-cb7-zarN6fpi-wTe-68-25" target="-cb7-zarN6fpi-wTe-68-28" edge="1">
          <mxGeometry relative="1" as="geometry" />
        </mxCell>
        <mxCell id="-cb7-zarN6fpi-wTe-68-32" style="edgeStyle=orthogonalEdgeStyle;rounded=0;orthogonalLoop=1;jettySize=auto;html=1;exitX=0.5;exitY=1;exitDx=0;exitDy=0;" parent="WIyWlLk6GJQsqaUBKTNV-1" source="-cb7-zarN6fpi-wTe-68-25" edge="1">
          <mxGeometry relative="1" as="geometry">
            <mxPoint x="821" y="480" as="targetPoint" />
          </mxGeometry>
        </mxCell>
        <mxCell id="-cb7-zarN6fpi-wTe-68-25" value="生成订单" style="whiteSpace=wrap;html=1;" parent="WIyWlLk6GJQsqaUBKTNV-1" vertex="1">
          <mxGeometry x="761" y="280" width="120" height="40" as="geometry" />
        </mxCell>
        <mxCell id="-cb7-zarN6fpi-wTe-68-105" style="edgeStyle=orthogonalEdgeStyle;rounded=0;orthogonalLoop=1;jettySize=auto;html=1;exitX=1;exitY=0.5;exitDx=0;exitDy=0;strokeColor=#000000;dashed=1;" parent="WIyWlLk6GJQsqaUBKTNV-1" source="-cb7-zarN6fpi-wTe-68-28" edge="1">
          <mxGeometry relative="1" as="geometry">
            <mxPoint x="460" y="360" as="targetPoint" />
            <Array as="points">
              <mxPoint x="1031" y="360" />
              <mxPoint x="560" y="360" />
            </Array>
          </mxGeometry>
        </mxCell>
        <mxCell id="-cb7-zarN6fpi-wTe-68-28" value="订单信息" style="shape=parallelogram;perimeter=parallelogramPerimeter;whiteSpace=wrap;html=1;fixedSize=1;" parent="WIyWlLk6GJQsqaUBKTNV-1" vertex="1">
          <mxGeometry x="921" y="280" width="120" height="40" as="geometry" />
        </mxCell>
        <mxCell id="-cb7-zarN6fpi-wTe-68-42" style="edgeStyle=orthogonalEdgeStyle;rounded=0;orthogonalLoop=1;jettySize=auto;html=1;exitX=0.5;exitY=1;exitDx=0;exitDy=0;strokeColor=#000000;entryX=0.5;entryY=0;entryDx=0;entryDy=0;" parent="WIyWlLk6GJQsqaUBKTNV-1" source="-cb7-zarN6fpi-wTe-68-34" target="-cb7-zarN6fpi-wTe-68-62" edge="1">
          <mxGeometry relative="1" as="geometry">
            <mxPoint x="461" y="630" as="targetPoint" />
          </mxGeometry>
        </mxCell>
        <mxCell id="-cb7-zarN6fpi-wTe-68-49" style="edgeStyle=orthogonalEdgeStyle;rounded=0;orthogonalLoop=1;jettySize=auto;html=1;exitX=0;exitY=0.5;exitDx=0;exitDy=0;strokeColor=#000000;" parent="WIyWlLk6GJQsqaUBKTNV-1" source="-cb7-zarN6fpi-wTe-68-34" edge="1">
          <mxGeometry relative="1" as="geometry">
            <mxPoint x="141" y="420" as="targetPoint" />
          </mxGeometry>
        </mxCell>
        <mxCell id="-cb7-zarN6fpi-wTe-68-34" value="提交支付" style="rounded=0;whiteSpace=wrap;html=1;" parent="WIyWlLk6GJQsqaUBKTNV-1" vertex="1">
          <mxGeometry x="401" y="400" width="120" height="40" as="geometry" />
        </mxCell>
        <mxCell id="-cb7-zarN6fpi-wTe-68-52" style="edgeStyle=orthogonalEdgeStyle;rounded=0;orthogonalLoop=1;jettySize=auto;html=1;exitX=1;exitY=0.5;exitDx=0;exitDy=0;strokeColor=#000000;entryX=0;entryY=0.5;entryDx=0;entryDy=0;entryPerimeter=0;dashed=1;" parent="WIyWlLk6GJQsqaUBKTNV-1" source="-cb7-zarN6fpi-wTe-68-51" target="-cb7-zarN6fpi-wTe-68-53" edge="1">
          <mxGeometry relative="1" as="geometry">
            <mxPoint x="751" y="500" as="targetPoint" />
          </mxGeometry>
        </mxCell>
        <mxCell id="-cb7-zarN6fpi-wTe-68-55" style="edgeStyle=orthogonalEdgeStyle;rounded=0;orthogonalLoop=1;jettySize=auto;html=1;exitX=0.5;exitY=1;exitDx=0;exitDy=0;strokeColor=#000000;" parent="WIyWlLk6GJQsqaUBKTNV-1" source="-cb7-zarN6fpi-wTe-68-51" edge="1">
          <mxGeometry relative="1" as="geometry">
            <mxPoint x="141" y="560" as="targetPoint" />
          </mxGeometry>
        </mxCell>
        <mxCell id="-cb7-zarN6fpi-wTe-68-51" value="验证订单真实性" style="rounded=0;whiteSpace=wrap;html=1;" parent="WIyWlLk6GJQsqaUBKTNV-1" vertex="1">
          <mxGeometry x="81" y="480" width="120" height="40" as="geometry" />
        </mxCell>
        <mxCell id="-cb7-zarN6fpi-wTe-68-54" style="edgeStyle=orthogonalEdgeStyle;rounded=0;orthogonalLoop=1;jettySize=auto;html=1;exitX=0.5;exitY=1;exitDx=0;exitDy=0;strokeColor=#000000;" parent="WIyWlLk6GJQsqaUBKTNV-1" source="-cb7-zarN6fpi-wTe-68-53" edge="1">
          <mxGeometry relative="1" as="geometry">
            <mxPoint x="821" y="1520" as="targetPoint" />
          </mxGeometry>
        </mxCell>
        <mxCell id="-cb7-zarN6fpi-wTe-68-57" style="edgeStyle=orthogonalEdgeStyle;rounded=0;orthogonalLoop=1;jettySize=auto;html=1;exitX=1;exitY=0.5;exitDx=0;exitDy=0;dashed=1;strokeColor=#000000;" parent="WIyWlLk6GJQsqaUBKTNV-1" source="-cb7-zarN6fpi-wTe-68-53" target="-cb7-zarN6fpi-wTe-68-56" edge="1">
          <mxGeometry relative="1" as="geometry">
            <mxPoint x="191" y="610" as="targetPoint" />
            <Array as="points">
              <mxPoint x="901" y="500" />
              <mxPoint x="901" y="600" />
            </Array>
          </mxGeometry>
        </mxCell>
        <mxCell id="-cb7-zarN6fpi-wTe-68-53" value="验证订单" style="rounded=0;whiteSpace=wrap;html=1;" parent="WIyWlLk6GJQsqaUBKTNV-1" vertex="1">
          <mxGeometry x="761" y="480" width="120" height="40" as="geometry" />
        </mxCell>
        <mxCell id="-cb7-zarN6fpi-wTe-68-58" style="edgeStyle=orthogonalEdgeStyle;rounded=0;orthogonalLoop=1;jettySize=auto;html=1;exitX=0.5;exitY=1;exitDx=0;exitDy=0;strokeColor=#000000;" parent="WIyWlLk6GJQsqaUBKTNV-1" source="-cb7-zarN6fpi-wTe-68-56" edge="1">
          <mxGeometry relative="1" as="geometry">
            <mxPoint x="141" y="800" as="targetPoint" />
          </mxGeometry>
        </mxCell>
        <mxCell id="-cb7-zarN6fpi-wTe-68-60" style="edgeStyle=orthogonalEdgeStyle;rounded=0;orthogonalLoop=1;jettySize=auto;html=1;exitX=0;exitY=0.5;exitDx=0;exitDy=0;strokeColor=#000000;dashed=1;" parent="WIyWlLk6GJQsqaUBKTNV-1" source="-cb7-zarN6fpi-wTe-68-56" target="-cb7-zarN6fpi-wTe-68-62" edge="1">
          <mxGeometry relative="1" as="geometry">
            <mxPoint x="361" y="670" as="targetPoint" />
            <Array as="points">
              <mxPoint x="81" y="600" />
              <mxPoint x="81" y="660" />
            </Array>
          </mxGeometry>
        </mxCell>
        <mxCell id="-cb7-zarN6fpi-wTe-68-56" value="订单信息" style="rhombus;whiteSpace=wrap;html=1;" parent="WIyWlLk6GJQsqaUBKTNV-1" vertex="1">
          <mxGeometry x="101" y="560" width="80" height="80" as="geometry" />
        </mxCell>
        <mxCell id="-cb7-zarN6fpi-wTe-68-59" value="订单存在" style="text;html=1;align=center;verticalAlign=middle;resizable=0;points=[];autosize=1;rotation=-1;" parent="WIyWlLk6GJQsqaUBKTNV-1" vertex="1">
          <mxGeometry x="141" y="720" width="60" height="20" as="geometry" />
        </mxCell>
        <mxCell id="-cb7-zarN6fpi-wTe-68-61" value="订单不存在" style="text;html=1;align=center;verticalAlign=middle;resizable=0;points=[];autosize=1;" parent="WIyWlLk6GJQsqaUBKTNV-1" vertex="1">
          <mxGeometry x="241" y="640" width="80" height="20" as="geometry" />
        </mxCell>
        <mxCell id="-cb7-zarN6fpi-wTe-68-63" style="edgeStyle=orthogonalEdgeStyle;rounded=0;orthogonalLoop=1;jettySize=auto;html=1;exitX=0.5;exitY=1;exitDx=0;exitDy=0;strokeColor=#000000;entryX=0.5;entryY=0;entryDx=0;entryDy=0;" parent="WIyWlLk6GJQsqaUBKTNV-1" source="-cb7-zarN6fpi-wTe-68-62" target="-cb7-zarN6fpi-wTe-68-67" edge="1">
          <mxGeometry relative="1" as="geometry">
            <mxPoint x="461" y="760" as="targetPoint" />
          </mxGeometry>
        </mxCell>
        <mxCell id="-cb7-zarN6fpi-wTe-68-62" value="订单不存的处理" style="rounded=0;whiteSpace=wrap;html=1;" parent="WIyWlLk6GJQsqaUBKTNV-1" vertex="1">
          <mxGeometry x="401" y="640" width="120" height="40" as="geometry" />
        </mxCell>
        <mxCell id="-cb7-zarN6fpi-wTe-68-69" style="edgeStyle=orthogonalEdgeStyle;rounded=0;orthogonalLoop=1;jettySize=auto;html=1;exitX=0.5;exitY=1;exitDx=0;exitDy=0;strokeColor=#000000;" parent="WIyWlLk6GJQsqaUBKTNV-1" source="-cb7-zarN6fpi-wTe-68-64" edge="1">
          <mxGeometry relative="1" as="geometry">
            <mxPoint x="141" y="960" as="targetPoint" />
          </mxGeometry>
        </mxCell>
        <mxCell id="-cb7-zarN6fpi-wTe-68-108" style="edgeStyle=orthogonalEdgeStyle;rounded=0;orthogonalLoop=1;jettySize=auto;html=1;exitX=1;exitY=0.5;exitDx=0;exitDy=0;dashed=1;strokeColor=#000000;" parent="WIyWlLk6GJQsqaUBKTNV-1" source="-cb7-zarN6fpi-wTe-68-64" edge="1">
          <mxGeometry relative="1" as="geometry">
            <mxPoint x="400" y="890" as="targetPoint" />
            <Array as="points">
              <mxPoint x="370" y="840" />
              <mxPoint x="370" y="890" />
            </Array>
          </mxGeometry>
        </mxCell>
        <mxCell id="-cb7-zarN6fpi-wTe-68-64" value="用户余额" style="rhombus;whiteSpace=wrap;html=1;" parent="WIyWlLk6GJQsqaUBKTNV-1" vertex="1">
          <mxGeometry x="101" y="800" width="80" height="80" as="geometry" />
        </mxCell>
        <mxCell id="-cb7-zarN6fpi-wTe-68-66" value="余额不足" style="text;html=1;align=center;verticalAlign=middle;resizable=0;points=[];autosize=1;" parent="WIyWlLk6GJQsqaUBKTNV-1" vertex="1">
          <mxGeometry x="251" y="820" width="60" height="20" as="geometry" />
        </mxCell>
        <mxCell id="-cb7-zarN6fpi-wTe-68-68" style="edgeStyle=orthogonalEdgeStyle;rounded=0;orthogonalLoop=1;jettySize=auto;html=1;exitX=0.5;exitY=1;exitDx=0;exitDy=0;strokeColor=#000000;" parent="WIyWlLk6GJQsqaUBKTNV-1" source="-cb7-zarN6fpi-wTe-68-67" edge="1">
          <mxGeometry relative="1" as="geometry">
            <mxPoint x="461" y="1180" as="targetPoint" />
          </mxGeometry>
        </mxCell>
        <mxCell id="-cb7-zarN6fpi-wTe-68-67" value="余额不足的处理" style="rounded=0;whiteSpace=wrap;html=1;" parent="WIyWlLk6GJQsqaUBKTNV-1" vertex="1">
          <mxGeometry x="401" y="870" width="120" height="40" as="geometry" />
        </mxCell>
        <mxCell id="-cb7-zarN6fpi-wTe-68-70" value="余额充足" style="text;html=1;align=center;verticalAlign=middle;resizable=0;points=[];autosize=1;" parent="WIyWlLk6GJQsqaUBKTNV-1" vertex="1">
          <mxGeometry x="141" y="910" width="60" height="20" as="geometry" />
        </mxCell>
        <mxCell id="-cb7-zarN6fpi-wTe-68-73" style="edgeStyle=orthogonalEdgeStyle;rounded=0;orthogonalLoop=1;jettySize=auto;html=1;exitX=1;exitY=0.5;exitDx=0;exitDy=0;entryX=0;entryY=0.5;entryDx=0;entryDy=0;strokeColor=#000000;dashed=1;" parent="WIyWlLk6GJQsqaUBKTNV-1" source="-cb7-zarN6fpi-wTe-68-71" target="-cb7-zarN6fpi-wTe-68-72" edge="1">
          <mxGeometry relative="1" as="geometry" />
        </mxCell>
        <mxCell id="-cb7-zarN6fpi-wTe-68-75" style="edgeStyle=orthogonalEdgeStyle;rounded=0;orthogonalLoop=1;jettySize=auto;html=1;exitX=0.5;exitY=1;exitDx=0;exitDy=0;strokeColor=#000000;" parent="WIyWlLk6GJQsqaUBKTNV-1" source="-cb7-zarN6fpi-wTe-68-71" edge="1">
          <mxGeometry relative="1" as="geometry">
            <mxPoint x="141" y="1080" as="targetPoint" />
          </mxGeometry>
        </mxCell>
        <mxCell id="-cb7-zarN6fpi-wTe-68-71" value="发起支付" style="rounded=0;whiteSpace=wrap;html=1;" parent="WIyWlLk6GJQsqaUBKTNV-1" vertex="1">
          <mxGeometry x="81" y="960" width="120" height="40" as="geometry" />
        </mxCell>
        <mxCell id="-cb7-zarN6fpi-wTe-68-74" style="edgeStyle=orthogonalEdgeStyle;rounded=0;orthogonalLoop=1;jettySize=auto;html=1;exitX=0.5;exitY=1;exitDx=0;exitDy=0;strokeColor=#000000;entryX=0.5;entryY=0;entryDx=0;entryDy=0;" parent="WIyWlLk6GJQsqaUBKTNV-1" source="-cb7-zarN6fpi-wTe-68-72" target="-cb7-zarN6fpi-wTe-68-76" edge="1">
          <mxGeometry relative="1" as="geometry">
            <mxPoint x="1141" y="1080" as="targetPoint" />
          </mxGeometry>
        </mxCell>
        <mxCell id="-cb7-zarN6fpi-wTe-68-72" value="支付" style="whiteSpace=wrap;html=1;" parent="WIyWlLk6GJQsqaUBKTNV-1" vertex="1">
          <mxGeometry x="1081" y="960" width="120" height="40" as="geometry" />
        </mxCell>
        <mxCell id="-cb7-zarN6fpi-wTe-68-78" style="edgeStyle=orthogonalEdgeStyle;rounded=0;orthogonalLoop=1;jettySize=auto;html=1;exitX=0;exitY=0.5;exitDx=0;exitDy=0;entryX=1;entryY=0.5;entryDx=0;entryDy=0;strokeColor=#000000;dashed=1;" parent="WIyWlLk6GJQsqaUBKTNV-1" source="-cb7-zarN6fpi-wTe-68-76" target="-cb7-zarN6fpi-wTe-68-77" edge="1">
          <mxGeometry relative="1" as="geometry" />
        </mxCell>
        <mxCell id="-cb7-zarN6fpi-wTe-68-100" style="edgeStyle=orthogonalEdgeStyle;rounded=0;orthogonalLoop=1;jettySize=auto;html=1;exitX=0.5;exitY=1;exitDx=0;exitDy=0;strokeColor=#000000;entryX=0.947;entryY=-0.05;entryDx=0;entryDy=0;entryPerimeter=0;" parent="WIyWlLk6GJQsqaUBKTNV-1" source="-cb7-zarN6fpi-wTe-68-76" target="-cb7-zarN6fpi-wTe-68-99" edge="1">
          <mxGeometry relative="1" as="geometry">
            <mxPoint x="1141" y="1620" as="targetPoint" />
          </mxGeometry>
        </mxCell>
        <mxCell id="-cb7-zarN6fpi-wTe-68-76" value="信风-&amp;gt;商城" style="whiteSpace=wrap;html=1;" parent="WIyWlLk6GJQsqaUBKTNV-1" vertex="1">
          <mxGeometry x="1081" y="1100" width="120" height="40" as="geometry" />
        </mxCell>
        <mxCell id="-cb7-zarN6fpi-wTe-68-79" style="edgeStyle=orthogonalEdgeStyle;rounded=0;orthogonalLoop=1;jettySize=auto;html=1;exitX=0.5;exitY=1;exitDx=0;exitDy=0;strokeColor=#000000;" parent="WIyWlLk6GJQsqaUBKTNV-1" source="-cb7-zarN6fpi-wTe-68-77" edge="1">
          <mxGeometry relative="1" as="geometry">
            <mxPoint x="141" y="1320" as="targetPoint" />
          </mxGeometry>
        </mxCell>
        <mxCell id="-cb7-zarN6fpi-wTe-68-84" style="edgeStyle=orthogonalEdgeStyle;rounded=0;orthogonalLoop=1;jettySize=auto;html=1;exitX=0;exitY=0.5;exitDx=0;exitDy=0;entryX=0;entryY=0.5;entryDx=0;entryDy=0;dashed=1;strokeColor=#000000;" parent="WIyWlLk6GJQsqaUBKTNV-1" source="-cb7-zarN6fpi-wTe-68-77" target="-cb7-zarN6fpi-wTe-68-81" edge="1">
          <mxGeometry relative="1" as="geometry" />
        </mxCell>
        <mxCell id="-cb7-zarN6fpi-wTe-68-77" value="是否成功" style="rhombus;whiteSpace=wrap;html=1;" parent="WIyWlLk6GJQsqaUBKTNV-1" vertex="1">
          <mxGeometry x="101" y="1080" width="80" height="80" as="geometry" />
        </mxCell>
        <mxCell id="-cb7-zarN6fpi-wTe-68-87" style="edgeStyle=orthogonalEdgeStyle;rounded=0;orthogonalLoop=1;jettySize=auto;html=1;exitX=0.5;exitY=1;exitDx=0;exitDy=0;strokeColor=#000000;" parent="WIyWlLk6GJQsqaUBKTNV-1" source="-cb7-zarN6fpi-wTe-68-81" edge="1">
          <mxGeometry relative="1" as="geometry">
            <mxPoint x="461" y="1960" as="targetPoint" />
          </mxGeometry>
        </mxCell>
        <mxCell id="-cb7-zarN6fpi-wTe-68-81" value="没成功处理" style="whiteSpace=wrap;html=1;" parent="WIyWlLk6GJQsqaUBKTNV-1" vertex="1">
          <mxGeometry x="401" y="1180" width="120" height="40" as="geometry" />
        </mxCell>
        <mxCell id="-cb7-zarN6fpi-wTe-68-82" value="支付没成功" style="text;html=1;align=center;verticalAlign=middle;resizable=0;points=[];autosize=1;" parent="WIyWlLk6GJQsqaUBKTNV-1" vertex="1">
          <mxGeometry x="221" y="1180" width="80" height="20" as="geometry" />
        </mxCell>
        <mxCell id="-cb7-zarN6fpi-wTe-68-85" value="成功" style="text;html=1;align=center;verticalAlign=middle;resizable=0;points=[];autosize=1;" parent="WIyWlLk6GJQsqaUBKTNV-1" vertex="1">
          <mxGeometry x="141" y="1260" width="40" height="20" as="geometry" />
        </mxCell>
        <mxCell id="-cb7-zarN6fpi-wTe-68-88" style="edgeStyle=orthogonalEdgeStyle;rounded=0;orthogonalLoop=1;jettySize=auto;html=1;exitX=0.5;exitY=1;exitDx=0;exitDy=0;strokeColor=#000000;" parent="WIyWlLk6GJQsqaUBKTNV-1" source="-cb7-zarN6fpi-wTe-68-86" edge="1">
          <mxGeometry relative="1" as="geometry">
            <mxPoint x="141" y="1440" as="targetPoint" />
          </mxGeometry>
        </mxCell>
        <mxCell id="-cb7-zarN6fpi-wTe-68-86" value="扣除用户余额" style="rounded=0;whiteSpace=wrap;html=1;" parent="WIyWlLk6GJQsqaUBKTNV-1" vertex="1">
          <mxGeometry x="81" y="1320" width="120" height="40" as="geometry" />
        </mxCell>
        <mxCell id="-cb7-zarN6fpi-wTe-68-91" style="edgeStyle=orthogonalEdgeStyle;rounded=0;orthogonalLoop=1;jettySize=auto;html=1;exitX=1;exitY=0.5;exitDx=0;exitDy=0;strokeColor=#000000;dashed=1;" parent="WIyWlLk6GJQsqaUBKTNV-1" source="-cb7-zarN6fpi-wTe-68-89" edge="1">
          <mxGeometry relative="1" as="geometry">
            <mxPoint x="820" y="1460" as="targetPoint" />
          </mxGeometry>
        </mxCell>
        <mxCell id="-cb7-zarN6fpi-wTe-68-93" style="edgeStyle=orthogonalEdgeStyle;rounded=0;orthogonalLoop=1;jettySize=auto;html=1;exitX=0.5;exitY=1;exitDx=0;exitDy=0;strokeColor=#000000;entryX=0.5;entryY=0;entryDx=0;entryDy=0;" parent="WIyWlLk6GJQsqaUBKTNV-1" source="-cb7-zarN6fpi-wTe-68-89" target="UZ5ZGeH2ipwweB1KEjQ_-11" edge="1">
          <mxGeometry relative="1" as="geometry">
            <mxPoint x="141" y="1710" as="targetPoint" />
          </mxGeometry>
        </mxCell>
        <mxCell id="-cb7-zarN6fpi-wTe-68-89" value="发起更新订单状态申请" style="rounded=0;whiteSpace=wrap;html=1;" parent="WIyWlLk6GJQsqaUBKTNV-1" vertex="1">
          <mxGeometry x="81" y="1440" width="120" height="40" as="geometry" />
        </mxCell>
        <mxCell id="-cb7-zarN6fpi-wTe-68-99" value="订单完成" style="rounded=1;whiteSpace=wrap;html=1;fontSize=12;glass=0;strokeWidth=1;shadow=0;fillColor=#dae8fc;strokeColor=#6c8ebf;gradientColor=#7ea6e0;" parent="WIyWlLk6GJQsqaUBKTNV-1" vertex="1">
          <mxGeometry x="81" y="2120" width="1120" height="40" as="geometry" />
        </mxCell>
        <mxCell id="UZ5ZGeH2ipwweB1KEjQ_-3" style="edgeStyle=orthogonalEdgeStyle;rounded=0;orthogonalLoop=1;jettySize=auto;html=1;exitX=0.5;exitY=1;exitDx=0;exitDy=0;" parent="WIyWlLk6GJQsqaUBKTNV-1" source="UZ5ZGeH2ipwweB1KEjQ_-0" edge="1">
          <mxGeometry relative="1" as="geometry">
            <mxPoint x="821" y="1640" as="targetPoint" />
            <Array as="points">
              <mxPoint x="821" y="1610" />
              <mxPoint x="821" y="1610" />
            </Array>
          </mxGeometry>
        </mxCell>
        <mxCell id="0ls1U6nJ8uNOwXyGQSj9-0" style="edgeStyle=orthogonalEdgeStyle;rounded=0;orthogonalLoop=1;jettySize=auto;html=1;exitX=0;exitY=0.5;exitDx=0;exitDy=0;dashed=1;" parent="WIyWlLk6GJQsqaUBKTNV-1" source="UZ5ZGeH2ipwweB1KEjQ_-0" edge="1">
          <mxGeometry relative="1" as="geometry">
            <mxPoint x="140" y="1540" as="targetPoint" />
          </mxGeometry>
        </mxCell>
        <mxCell id="UZ5ZGeH2ipwweB1KEjQ_-0" value="查询订单" style="whiteSpace=wrap;html=1;" parent="WIyWlLk6GJQsqaUBKTNV-1" vertex="1">
          <mxGeometry x="761" y="1520" width="119" height="40" as="geometry" />
        </mxCell>
        <mxCell id="UZ5ZGeH2ipwweB1KEjQ_-8" style="edgeStyle=orthogonalEdgeStyle;rounded=0;orthogonalLoop=1;jettySize=auto;html=1;exitX=0.5;exitY=1;exitDx=0;exitDy=0;entryX=0.5;entryY=0;entryDx=0;entryDy=0;" parent="WIyWlLk6GJQsqaUBKTNV-1" source="UZ5ZGeH2ipwweB1KEjQ_-5" target="UZ5ZGeH2ipwweB1KEjQ_-14" edge="1">
          <mxGeometry relative="1" as="geometry">
            <mxPoint x="821" y="1800" as="targetPoint" />
            <Array as="points">
              <mxPoint x="821" y="1820" />
              <mxPoint x="821" y="1820" />
            </Array>
          </mxGeometry>
        </mxCell>
        <mxCell id="UZ5ZGeH2ipwweB1KEjQ_-12" style="edgeStyle=orthogonalEdgeStyle;rounded=0;orthogonalLoop=1;jettySize=auto;html=1;exitX=1;exitY=0.5;exitDx=0;exitDy=0;entryX=1;entryY=0.5;entryDx=0;entryDy=0;dashed=1;" parent="WIyWlLk6GJQsqaUBKTNV-1" source="UZ5ZGeH2ipwweB1KEjQ_-5" target="UZ5ZGeH2ipwweB1KEjQ_-11" edge="1">
          <mxGeometry relative="1" as="geometry">
            <mxPoint x="290" y="1745" as="targetPoint" />
            <Array as="points">
              <mxPoint x="881" y="1680" />
              <mxPoint x="881" y="1740" />
            </Array>
          </mxGeometry>
        </mxCell>
        <mxCell id="UZ5ZGeH2ipwweB1KEjQ_-5" value="是否收到" style="rhombus;whiteSpace=wrap;html=1;" parent="WIyWlLk6GJQsqaUBKTNV-1" vertex="1">
          <mxGeometry x="780.5" y="1640" width="80" height="80" as="geometry" />
        </mxCell>
        <mxCell id="UZ5ZGeH2ipwweB1KEjQ_-17" style="edgeStyle=orthogonalEdgeStyle;rounded=0;orthogonalLoop=1;jettySize=auto;html=1;exitX=0.5;exitY=1;exitDx=0;exitDy=0;entryX=0.5;entryY=0;entryDx=0;entryDy=0;" parent="WIyWlLk6GJQsqaUBKTNV-1" source="UZ5ZGeH2ipwweB1KEjQ_-11" target="UZ5ZGeH2ipwweB1KEjQ_-16" edge="1">
          <mxGeometry relative="1" as="geometry" />
        </mxCell>
        <mxCell id="UZ5ZGeH2ipwweB1KEjQ_-11" value="处理失败订单" style="whiteSpace=wrap;html=1;" parent="WIyWlLk6GJQsqaUBKTNV-1" vertex="1">
          <mxGeometry x="81" y="1720" width="120" height="40" as="geometry" />
        </mxCell>
        <mxCell id="UZ5ZGeH2ipwweB1KEjQ_-13" value="没有收到" style="text;html=1;align=center;verticalAlign=middle;resizable=0;points=[];autosize=1;" parent="WIyWlLk6GJQsqaUBKTNV-1" vertex="1">
          <mxGeometry x="880" y="1700" width="60" height="20" as="geometry" />
        </mxCell>
        <mxCell id="UZ5ZGeH2ipwweB1KEjQ_-23" style="edgeStyle=orthogonalEdgeStyle;rounded=0;orthogonalLoop=1;jettySize=auto;html=1;exitX=0;exitY=0.5;exitDx=0;exitDy=0;entryX=1;entryY=0.5;entryDx=0;entryDy=0;dashed=1;" parent="WIyWlLk6GJQsqaUBKTNV-1" source="UZ5ZGeH2ipwweB1KEjQ_-14" target="UZ5ZGeH2ipwweB1KEjQ_-16" edge="1">
          <mxGeometry relative="1" as="geometry" />
        </mxCell>
        <mxCell id="UZ5ZGeH2ipwweB1KEjQ_-27" style="edgeStyle=orthogonalEdgeStyle;rounded=0;orthogonalLoop=1;jettySize=auto;html=1;exitX=0.5;exitY=1;exitDx=0;exitDy=0;entryX=0.66;entryY=-0.1;entryDx=0;entryDy=0;entryPerimeter=0;" parent="WIyWlLk6GJQsqaUBKTNV-1" source="UZ5ZGeH2ipwweB1KEjQ_-14" target="-cb7-zarN6fpi-wTe-68-99" edge="1">
          <mxGeometry relative="1" as="geometry" />
        </mxCell>
        <mxCell id="UZ5ZGeH2ipwweB1KEjQ_-14" value="更新订单状态" style="whiteSpace=wrap;html=1;" parent="WIyWlLk6GJQsqaUBKTNV-1" vertex="1">
          <mxGeometry x="760" y="1880" width="121" height="40" as="geometry" />
        </mxCell>
        <mxCell id="UZ5ZGeH2ipwweB1KEjQ_-21" style="edgeStyle=orthogonalEdgeStyle;rounded=0;orthogonalLoop=1;jettySize=auto;html=1;exitX=0.5;exitY=1;exitDx=0;exitDy=0;entryX=0.053;entryY=0;entryDx=0;entryDy=0;entryPerimeter=0;" parent="WIyWlLk6GJQsqaUBKTNV-1" source="UZ5ZGeH2ipwweB1KEjQ_-16" target="-cb7-zarN6fpi-wTe-68-99" edge="1">
          <mxGeometry relative="1" as="geometry">
            <mxPoint x="140" y="2080" as="targetPoint" />
            <Array as="points">
              <mxPoint x="141" y="2000" />
            </Array>
          </mxGeometry>
        </mxCell>
        <mxCell id="UZ5ZGeH2ipwweB1KEjQ_-16" value="支付完成" style="whiteSpace=wrap;html=1;" parent="WIyWlLk6GJQsqaUBKTNV-1" vertex="1">
          <mxGeometry x="81" y="1880" width="120" height="40" as="geometry" />
        </mxCell>
        <mxCell id="UZ5ZGeH2ipwweB1KEjQ_-19" value="收到" style="text;html=1;align=center;verticalAlign=middle;resizable=0;points=[];autosize=1;" parent="WIyWlLk6GJQsqaUBKTNV-1" vertex="1">
          <mxGeometry x="820.5" y="1780" width="40" height="20" as="geometry" />
        </mxCell>
        <mxCell id="UZ5ZGeH2ipwweB1KEjQ_-26" style="edgeStyle=orthogonalEdgeStyle;rounded=0;orthogonalLoop=1;jettySize=auto;html=1;exitX=0.5;exitY=1;exitDx=0;exitDy=0;entryX=0.339;entryY=-0.075;entryDx=0;entryDy=0;entryPerimeter=0;" parent="WIyWlLk6GJQsqaUBKTNV-1" source="UZ5ZGeH2ipwweB1KEjQ_-20" target="-cb7-zarN6fpi-wTe-68-99" edge="1">
          <mxGeometry relative="1" as="geometry" />
        </mxCell>
        <mxCell id="UZ5ZGeH2ipwweB1KEjQ_-20" value="支付完成" style="whiteSpace=wrap;html=1;" parent="WIyWlLk6GJQsqaUBKTNV-1" vertex="1">
          <mxGeometry x="401" y="1960" width="120" height="40" as="geometry" />
        </mxCell>
        <mxCell id="UZ5ZGeH2ipwweB1KEjQ_-24" value="" style="endArrow=classic;html=1;entryX=0;entryY=0.5;entryDx=0;entryDy=0;" parent="WIyWlLk6GJQsqaUBKTNV-1" target="UZ5ZGeH2ipwweB1KEjQ_-20" edge="1">
          <mxGeometry width="50" height="50" relative="1" as="geometry">
            <mxPoint x="140" y="1980" as="sourcePoint" />
            <mxPoint x="750" y="1990" as="targetPoint" />
          </mxGeometry>
        </mxCell>
      </root>
    </mxGraphModel>
  </diagram>
  <diagram id="kbZ2DYcXC1RZ9mf4_zoG" name="登录授权">
    <mxGraphModel dx="2322" dy="794" grid="1" gridSize="10" guides="1" tooltips="1" connect="1" arrows="1" fold="1" page="1" pageScale="1" pageWidth="900" pageHeight="1600" math="0" shadow="0">
      <root>
        <mxCell id="CIWTvf6S3Ys4PnOb3jQu-0" />
        <mxCell id="CIWTvf6S3Ys4PnOb3jQu-1" parent="CIWTvf6S3Ys4PnOb3jQu-0" />
        <mxCell id="dv6VyUSKySuK1FAYExE9-1" style="edgeStyle=orthogonalEdgeStyle;rounded=0;orthogonalLoop=1;jettySize=auto;html=1;exitX=0.75;exitY=1;exitDx=0;exitDy=0;" edge="1" parent="CIWTvf6S3Ys4PnOb3jQu-1" source="dv6VyUSKySuK1FAYExE9-3" target="dv6VyUSKySuK1FAYExE9-6">
          <mxGeometry relative="1" as="geometry">
            <Array as="points">
              <mxPoint x="-60" y="110" />
            </Array>
          </mxGeometry>
        </mxCell>
        <mxCell id="dv6VyUSKySuK1FAYExE9-3" value="授权" style="rounded=0;whiteSpace=wrap;html=1;fillColor=#dae8fc;strokeColor=#6c8ebf;" vertex="1" parent="CIWTvf6S3Ys4PnOb3jQu-1">
          <mxGeometry x="-531" y="50" width="630" height="60" as="geometry" />
        </mxCell>
        <mxCell id="dv6VyUSKySuK1FAYExE9-4" value="" style="group" vertex="1" connectable="0" parent="CIWTvf6S3Ys4PnOb3jQu-1">
          <mxGeometry x="-539.5" y="50" width="630" height="200" as="geometry" />
        </mxCell>
        <mxCell id="dv6VyUSKySuK1FAYExE9-5" value="信封" style="rounded=0;whiteSpace=wrap;html=1;fillColor=#fff2cc;strokeColor=#d6b656;" vertex="1" parent="dv6VyUSKySuK1FAYExE9-4">
          <mxGeometry x="100" y="140" width="120" height="60" as="geometry" />
        </mxCell>
        <mxCell id="dv6VyUSKySuK1FAYExE9-6" value="万联优选" style="whiteSpace=wrap;html=1;fillColor=#f8cecc;strokeColor=#b85450;" vertex="1" parent="dv6VyUSKySuK1FAYExE9-4">
          <mxGeometry x="411" y="140" width="120" height="60" as="geometry" />
        </mxCell>
        <mxCell id="dv6VyUSKySuK1FAYExE9-39" style="edgeStyle=orthogonalEdgeStyle;rounded=0;orthogonalLoop=1;jettySize=auto;html=1;entryX=0.5;entryY=0;entryDx=0;entryDy=0;" edge="1" parent="dv6VyUSKySuK1FAYExE9-4" target="dv6VyUSKySuK1FAYExE9-5">
          <mxGeometry relative="1" as="geometry">
            <mxPoint x="169.5" y="60" as="sourcePoint" />
            <Array as="points">
              <mxPoint x="158" y="60" />
              <mxPoint x="158" y="100" />
              <mxPoint x="160" y="100" />
            </Array>
          </mxGeometry>
        </mxCell>
        <mxCell id="dv6VyUSKySuK1FAYExE9-7" value="授权" style="rounded=0;whiteSpace=wrap;html=1;fillColor=#dae8fc;strokeColor=#6c8ebf;" vertex="1" parent="dv6VyUSKySuK1FAYExE9-4">
          <mxGeometry width="630" height="60" as="geometry" />
        </mxCell>
        <mxCell id="dv6VyUSKySuK1FAYExE9-9" style="edgeStyle=orthogonalEdgeStyle;rounded=0;orthogonalLoop=1;jettySize=auto;html=1;exitX=0.5;exitY=1;exitDx=0;exitDy=0;" edge="1" parent="CIWTvf6S3Ys4PnOb3jQu-1" source="dv6VyUSKySuK1FAYExE9-11">
          <mxGeometry relative="1" as="geometry">
            <mxPoint x="-60" y="610" as="targetPoint" />
          </mxGeometry>
        </mxCell>
        <mxCell id="dv6VyUSKySuK1FAYExE9-10" style="edgeStyle=orthogonalEdgeStyle;rounded=0;orthogonalLoop=1;jettySize=auto;html=1;exitX=1;exitY=0.5;exitDx=0;exitDy=0;entryX=1;entryY=0.5;entryDx=0;entryDy=0;" edge="1" parent="CIWTvf6S3Ys4PnOb3jQu-1" source="dv6VyUSKySuK1FAYExE9-11" target="dv6VyUSKySuK1FAYExE9-15">
          <mxGeometry relative="1" as="geometry">
            <mxPoint x="130" y="790" as="targetPoint" />
            <Array as="points">
              <mxPoint x="120" y="410" />
              <mxPoint x="120" y="830" />
            </Array>
          </mxGeometry>
        </mxCell>
        <mxCell id="dv6VyUSKySuK1FAYExE9-11" value="验证用户" style="rhombus;whiteSpace=wrap;html=1;" vertex="1" parent="CIWTvf6S3Ys4PnOb3jQu-1">
          <mxGeometry x="-100" y="370" width="80" height="80" as="geometry" />
        </mxCell>
        <mxCell id="dv6VyUSKySuK1FAYExE9-12" style="edgeStyle=orthogonalEdgeStyle;rounded=0;orthogonalLoop=1;jettySize=auto;html=1;exitX=0.5;exitY=1;exitDx=0;exitDy=0;entryX=0.5;entryY=0;entryDx=0;entryDy=0;" edge="1" parent="CIWTvf6S3Ys4PnOb3jQu-1" source="dv6VyUSKySuK1FAYExE9-13" target="dv6VyUSKySuK1FAYExE9-15">
          <mxGeometry relative="1" as="geometry">
            <mxPoint x="-60" y="740" as="targetPoint" />
          </mxGeometry>
        </mxCell>
        <mxCell id="dv6VyUSKySuK1FAYExE9-13" value="注册" style="rounded=0;whiteSpace=wrap;html=1;" vertex="1" parent="CIWTvf6S3Ys4PnOb3jQu-1">
          <mxGeometry x="-120" y="610" width="120" height="60" as="geometry" />
        </mxCell>
        <mxCell id="dv6VyUSKySuK1FAYExE9-15" value="生成token" style="rounded=0;whiteSpace=wrap;html=1;" vertex="1" parent="CIWTvf6S3Ys4PnOb3jQu-1">
          <mxGeometry x="-120" y="800" width="120" height="60" as="geometry" />
        </mxCell>
        <mxCell id="dv6VyUSKySuK1FAYExE9-16" value="Y" style="text;html=1;align=center;verticalAlign=middle;resizable=0;points=[];autosize=1;" vertex="1" parent="CIWTvf6S3Ys4PnOb3jQu-1">
          <mxGeometry x="40" y="390" width="20" height="20" as="geometry" />
        </mxCell>
        <mxCell id="dv6VyUSKySuK1FAYExE9-17" value="返回token" style="endArrow=classic;html=1;exitX=0;exitY=0.5;exitDx=0;exitDy=0;" edge="1" parent="CIWTvf6S3Ys4PnOb3jQu-1" source="dv6VyUSKySuK1FAYExE9-15">
          <mxGeometry x="0.0625" relative="1" as="geometry">
            <mxPoint x="-60" y="930" as="sourcePoint" />
            <mxPoint x="-380" y="830" as="targetPoint" />
            <mxPoint as="offset" />
          </mxGeometry>
        </mxCell>
        <mxCell id="dv6VyUSKySuK1FAYExE9-18" value="" style="group" vertex="1" connectable="0" parent="CIWTvf6S3Ys4PnOb3jQu-1">
          <mxGeometry x="-440" y="1420" width="431" height="60" as="geometry" />
        </mxCell>
        <mxCell id="dv6VyUSKySuK1FAYExE9-19" value="万联优选" style="rounded=0;whiteSpace=wrap;html=1;fillColor=#f8cecc;strokeColor=#b85450;" vertex="1" parent="dv6VyUSKySuK1FAYExE9-18">
          <mxGeometry x="311" width="120" height="60" as="geometry" />
        </mxCell>
        <mxCell id="dv6VyUSKySuK1FAYExE9-20" value="&lt;span&gt;信封&lt;/span&gt;" style="rounded=0;whiteSpace=wrap;html=1;fillColor=#fff2cc;strokeColor=#d6b656;" vertex="1" parent="dv6VyUSKySuK1FAYExE9-18">
          <mxGeometry width="120" height="60" as="geometry" />
        </mxCell>
        <mxCell id="dv6VyUSKySuK1FAYExE9-21" style="edgeStyle=orthogonalEdgeStyle;rounded=0;orthogonalLoop=1;jettySize=auto;html=1;exitX=0;exitY=0.5;exitDx=0;exitDy=0;entryX=0.992;entryY=0.388;entryDx=0;entryDy=0;entryPerimeter=0;" edge="1" parent="CIWTvf6S3Ys4PnOb3jQu-1" source="dv6VyUSKySuK1FAYExE9-23" target="dv6VyUSKySuK1FAYExE9-26">
          <mxGeometry relative="1" as="geometry" />
        </mxCell>
        <mxCell id="dv6VyUSKySuK1FAYExE9-40" style="edgeStyle=orthogonalEdgeStyle;rounded=0;orthogonalLoop=1;jettySize=auto;html=1;exitX=0.5;exitY=1;exitDx=0;exitDy=0;" edge="1" parent="CIWTvf6S3Ys4PnOb3jQu-1" source="dv6VyUSKySuK1FAYExE9-23" target="dv6VyUSKySuK1FAYExE9-29">
          <mxGeometry relative="1" as="geometry" />
        </mxCell>
        <mxCell id="dv6VyUSKySuK1FAYExE9-23" value="登录" style="whiteSpace=wrap;html=1;" vertex="1" parent="CIWTvf6S3Ys4PnOb3jQu-1">
          <mxGeometry x="-440" y="310" width="121" height="60" as="geometry" />
        </mxCell>
        <mxCell id="dv6VyUSKySuK1FAYExE9-24" value="N" style="text;html=1;align=center;verticalAlign=middle;resizable=0;points=[];autosize=1;" vertex="1" parent="CIWTvf6S3Ys4PnOb3jQu-1">
          <mxGeometry x="-50" y="540" width="20" height="20" as="geometry" />
        </mxCell>
        <mxCell id="dv6VyUSKySuK1FAYExE9-25" style="edgeStyle=orthogonalEdgeStyle;rounded=0;orthogonalLoop=1;jettySize=auto;html=1;exitX=0;exitY=0.5;exitDx=0;exitDy=0;dashed=1;entryX=0;entryY=0.5;entryDx=0;entryDy=0;" edge="1" parent="CIWTvf6S3Ys4PnOb3jQu-1" source="dv6VyUSKySuK1FAYExE9-26" target="dv6VyUSKySuK1FAYExE9-11">
          <mxGeometry relative="1" as="geometry">
            <mxPoint x="-120" y="410" as="targetPoint" />
            <Array as="points">
              <mxPoint x="-640" y="350" />
              <mxPoint x="-640" y="410" />
            </Array>
          </mxGeometry>
        </mxCell>
        <mxCell id="dv6VyUSKySuK1FAYExE9-26" value="用户id&lt;br&gt;手机号" style="shape=document;whiteSpace=wrap;html=1;boundedLbl=1;" vertex="1" parent="CIWTvf6S3Ys4PnOb3jQu-1">
          <mxGeometry x="-620" y="310" width="120" height="80" as="geometry" />
        </mxCell>
        <mxCell id="dv6VyUSKySuK1FAYExE9-27" style="edgeStyle=orthogonalEdgeStyle;rounded=0;orthogonalLoop=1;jettySize=auto;html=1;exitX=0;exitY=0.5;exitDx=0;exitDy=0;entryX=1.008;entryY=0.388;entryDx=0;entryDy=0;entryPerimeter=0;" edge="1" parent="CIWTvf6S3Ys4PnOb3jQu-1" source="dv6VyUSKySuK1FAYExE9-29" target="dv6VyUSKySuK1FAYExE9-31">
          <mxGeometry relative="1" as="geometry" />
        </mxCell>
        <mxCell id="dv6VyUSKySuK1FAYExE9-48" style="edgeStyle=orthogonalEdgeStyle;rounded=0;orthogonalLoop=1;jettySize=auto;html=1;exitX=0.5;exitY=1;exitDx=0;exitDy=0;entryX=0.5;entryY=0;entryDx=0;entryDy=0;" edge="1" parent="CIWTvf6S3Ys4PnOb3jQu-1" source="dv6VyUSKySuK1FAYExE9-29" target="dv6VyUSKySuK1FAYExE9-45">
          <mxGeometry relative="1" as="geometry" />
        </mxCell>
        <mxCell id="dv6VyUSKySuK1FAYExE9-29" value="再次验证" style="rounded=0;whiteSpace=wrap;html=1;" vertex="1" parent="CIWTvf6S3Ys4PnOb3jQu-1">
          <mxGeometry x="-440" y="990" width="120" height="60" as="geometry" />
        </mxCell>
        <mxCell id="dv6VyUSKySuK1FAYExE9-30" style="edgeStyle=orthogonalEdgeStyle;rounded=0;orthogonalLoop=1;jettySize=auto;html=1;exitX=0;exitY=0.5;exitDx=0;exitDy=0;dashed=1;entryX=0;entryY=0.5;entryDx=0;entryDy=0;" edge="1" parent="CIWTvf6S3Ys4PnOb3jQu-1" source="dv6VyUSKySuK1FAYExE9-31" target="dv6VyUSKySuK1FAYExE9-37">
          <mxGeometry relative="1" as="geometry">
            <mxPoint x="-160" y="1100" as="targetPoint" />
            <Array as="points">
              <mxPoint x="-660" y="1030" />
              <mxPoint x="-660" y="1110" />
            </Array>
          </mxGeometry>
        </mxCell>
        <mxCell id="dv6VyUSKySuK1FAYExE9-31" value="token&lt;br&gt;用户id&lt;br&gt;手机号" style="shape=document;whiteSpace=wrap;html=1;boundedLbl=1;" vertex="1" parent="CIWTvf6S3Ys4PnOb3jQu-1">
          <mxGeometry x="-640" y="990" width="120" height="80" as="geometry" />
        </mxCell>
        <mxCell id="dv6VyUSKySuK1FAYExE9-34" value="返回token" style="endArrow=classic;html=1;" edge="1" parent="CIWTvf6S3Ys4PnOb3jQu-1">
          <mxGeometry relative="1" as="geometry">
            <mxPoint x="-120" y="1300" as="sourcePoint" />
            <mxPoint x="-380" y="1300" as="targetPoint" />
            <Array as="points">
              <mxPoint x="-240" y="1300" />
            </Array>
          </mxGeometry>
        </mxCell>
        <mxCell id="dv6VyUSKySuK1FAYExE9-35" style="edgeStyle=orthogonalEdgeStyle;rounded=0;orthogonalLoop=1;jettySize=auto;html=1;exitX=0.5;exitY=1;exitDx=0;exitDy=0;entryX=0.5;entryY=0;entryDx=0;entryDy=0;" edge="1" parent="CIWTvf6S3Ys4PnOb3jQu-1" source="dv6VyUSKySuK1FAYExE9-6" target="dv6VyUSKySuK1FAYExE9-11">
          <mxGeometry relative="1" as="geometry" />
        </mxCell>
        <mxCell id="dv6VyUSKySuK1FAYExE9-36" style="edgeStyle=orthogonalEdgeStyle;rounded=0;orthogonalLoop=1;jettySize=auto;html=1;exitX=0.5;exitY=1;exitDx=0;exitDy=0;" edge="1" parent="CIWTvf6S3Ys4PnOb3jQu-1" source="dv6VyUSKySuK1FAYExE9-15">
          <mxGeometry relative="1" as="geometry">
            <mxPoint x="-60" y="1070" as="targetPoint" />
            <mxPoint x="-60" y="860" as="sourcePoint" />
          </mxGeometry>
        </mxCell>
        <mxCell id="dv6VyUSKySuK1FAYExE9-42" style="edgeStyle=orthogonalEdgeStyle;rounded=0;orthogonalLoop=1;jettySize=auto;html=1;exitX=0.5;exitY=1;exitDx=0;exitDy=0;" edge="1" parent="CIWTvf6S3Ys4PnOb3jQu-1" source="dv6VyUSKySuK1FAYExE9-37" target="dv6VyUSKySuK1FAYExE9-41">
          <mxGeometry relative="1" as="geometry" />
        </mxCell>
        <mxCell id="dv6VyUSKySuK1FAYExE9-44" style="edgeStyle=orthogonalEdgeStyle;rounded=0;orthogonalLoop=1;jettySize=auto;html=1;exitX=1;exitY=0.5;exitDx=0;exitDy=0;dashed=1;entryX=1;entryY=0.5;entryDx=0;entryDy=0;" edge="1" parent="CIWTvf6S3Ys4PnOb3jQu-1" source="dv6VyUSKySuK1FAYExE9-37" target="dv6VyUSKySuK1FAYExE9-45">
          <mxGeometry relative="1" as="geometry">
            <mxPoint x="-270" y="1170" as="targetPoint" />
            <Array as="points">
              <mxPoint x="50" y="1110" />
              <mxPoint x="50" y="1170" />
            </Array>
          </mxGeometry>
        </mxCell>
        <mxCell id="dv6VyUSKySuK1FAYExE9-37" value="验证信息" style="rhombus;whiteSpace=wrap;html=1;" vertex="1" parent="CIWTvf6S3Ys4PnOb3jQu-1">
          <mxGeometry x="-100" y="1070" width="80" height="80" as="geometry" />
        </mxCell>
        <mxCell id="dv6VyUSKySuK1FAYExE9-38" style="edgeStyle=orthogonalEdgeStyle;rounded=0;orthogonalLoop=1;jettySize=auto;html=1;exitX=0.5;exitY=1;exitDx=0;exitDy=0;entryX=0.5;entryY=0;entryDx=0;entryDy=0;" edge="1" parent="CIWTvf6S3Ys4PnOb3jQu-1" source="dv6VyUSKySuK1FAYExE9-5" target="dv6VyUSKySuK1FAYExE9-23">
          <mxGeometry relative="1" as="geometry" />
        </mxCell>
        <mxCell id="dv6VyUSKySuK1FAYExE9-47" style="edgeStyle=orthogonalEdgeStyle;rounded=0;orthogonalLoop=1;jettySize=auto;html=1;exitX=0.5;exitY=1;exitDx=0;exitDy=0;entryX=0.567;entryY=-0.05;entryDx=0;entryDy=0;entryPerimeter=0;" edge="1" parent="CIWTvf6S3Ys4PnOb3jQu-1" source="dv6VyUSKySuK1FAYExE9-41" target="dv6VyUSKySuK1FAYExE9-19">
          <mxGeometry relative="1" as="geometry">
            <Array as="points">
              <mxPoint x="-60" y="1380" />
              <mxPoint x="-61" y="1380" />
            </Array>
          </mxGeometry>
        </mxCell>
        <mxCell id="dv6VyUSKySuK1FAYExE9-41" value="&lt;span&gt;生成token&lt;/span&gt;" style="whiteSpace=wrap;html=1;" vertex="1" parent="CIWTvf6S3Ys4PnOb3jQu-1">
          <mxGeometry x="-120" y="1280" width="120" height="60" as="geometry" />
        </mxCell>
        <mxCell id="dv6VyUSKySuK1FAYExE9-43" value="Yes" style="text;html=1;align=center;verticalAlign=middle;resizable=0;points=[];autosize=1;" vertex="1" parent="CIWTvf6S3Ys4PnOb3jQu-1">
          <mxGeometry x="-60" y="1200" width="40" height="20" as="geometry" />
        </mxCell>
        <mxCell id="dv6VyUSKySuK1FAYExE9-49" style="edgeStyle=orthogonalEdgeStyle;rounded=0;orthogonalLoop=1;jettySize=auto;html=1;exitX=0.5;exitY=1;exitDx=0;exitDy=0;entryX=0.5;entryY=0;entryDx=0;entryDy=0;" edge="1" parent="CIWTvf6S3Ys4PnOb3jQu-1" source="dv6VyUSKySuK1FAYExE9-45" target="dv6VyUSKySuK1FAYExE9-20">
          <mxGeometry relative="1" as="geometry" />
        </mxCell>
        <mxCell id="dv6VyUSKySuK1FAYExE9-50" style="edgeStyle=orthogonalEdgeStyle;rounded=0;orthogonalLoop=1;jettySize=auto;html=1;exitX=0;exitY=0.5;exitDx=0;exitDy=0;" edge="1" parent="CIWTvf6S3Ys4PnOb3jQu-1" source="dv6VyUSKySuK1FAYExE9-45">
          <mxGeometry relative="1" as="geometry">
            <mxPoint x="-380" y="280" as="targetPoint" />
            <Array as="points">
              <mxPoint x="-730" y="1170" />
              <mxPoint x="-730" y="280" />
            </Array>
          </mxGeometry>
        </mxCell>
        <mxCell id="dv6VyUSKySuK1FAYExE9-45" value="登录失败" style="whiteSpace=wrap;html=1;" vertex="1" parent="CIWTvf6S3Ys4PnOb3jQu-1">
          <mxGeometry x="-440" y="1140" width="120" height="60" as="geometry" />
        </mxCell>
        <mxCell id="dv6VyUSKySuK1FAYExE9-46" value="No" style="text;html=1;align=center;verticalAlign=middle;resizable=0;points=[];autosize=1;" vertex="1" parent="CIWTvf6S3Ys4PnOb3jQu-1">
          <mxGeometry x="5" y="1080" width="30" height="20" as="geometry" />
        </mxCell>
      </root>
    </mxGraphModel>
  </diagram>
</mxfile>
